<mxfile host="app.diagrams.net" agent="Mozilla/5.0 (Windows NT 10.0; Win64; x64) AppleWebKit/537.36 (KHTML, like Gecko) Chrome/133.0.0.0 Safari/537.36" version="26.0.16">
  <diagram name="Page-1" id="6ggMAtpDhnrdkJ3PQfBe">
    <mxGraphModel dx="842" dy="426" grid="1" gridSize="10" guides="1" tooltips="1" connect="1" arrows="1" fold="1" page="1" pageScale="1" pageWidth="850" pageHeight="1100" math="0" shadow="0">
      <root>
        <mxCell id="0" />
        <mxCell id="1" parent="0" />
        <mxCell id="86EKvm03pErXmEnmY4j6-52" value="&lt;div&gt;Username&lt;/div&gt;&lt;div&gt;(.name)&lt;/div&gt;" style="whiteSpace=wrap;html=1;rounded=1;" vertex="1" parent="1">
          <mxGeometry x="370" y="220" width="100" height="56" as="geometry" />
        </mxCell>
        <mxCell id="86EKvm03pErXmEnmY4j6-53" value="" style="line;strokeWidth=2;html=1;rounded=1;" vertex="1" parent="1">
          <mxGeometry x="469.9999999999998" y="243" width="40" height="10" as="geometry" />
        </mxCell>
        <mxCell id="86EKvm03pErXmEnmY4j6-54" style="vsdxID=5;fillColor=none;gradientColor=none;shape=stencil(nZBLDoAgDERP0z3SIyjew0SURgSD+Lu9kMZoXLhwN9O+tukAlrNpJg1SzDH4QW/URgNYgZTkjA4UkwJUgGXng+6DX1zLfmoymdXo17xh5zmRJ6Q42BWCfc2oJfdAr+Yv+AP9Cb7OJ3H/2JG1HNGz/84klThPVCc=);strokeColor=#000000;spacingTop=-3;spacingBottom=-3;spacingLeft=-3;spacingRight=-3;labelBackgroundColor=none;rounded=0;html=1;whiteSpace=wrap;" vertex="1" parent="1">
          <mxGeometry x="510" y="243.5" width="40" height="10" as="geometry" />
        </mxCell>
        <mxCell id="86EKvm03pErXmEnmY4j6-55" style="vsdxID=7;fillColor=#FFFFFF;gradientColor=none;shape=stencil(nZBLDoAgDERP0z3SIyjew0SURgSD+Lu9kMZoXLhwN9O+tukAlrNpJg1SzDH4QW/URgNYgZTkjA4UkwJUgGXng+6DX1zLfmoymdXo17xh5zmRJ6Q42BWCfc2oJfdAr+Yv+AP9Cb7OJ3H/2JG1HNGz/84klThPVCc=);strokeColor=#000000;spacingTop=-3;spacingBottom=-3;spacingLeft=-3;spacingRight=-3;labelBackgroundColor=none;rounded=0;html=1;whiteSpace=wrap;" vertex="1" parent="86EKvm03pErXmEnmY4j6-54">
          <mxGeometry width="20" height="10" as="geometry" />
        </mxCell>
        <mxCell id="86EKvm03pErXmEnmY4j6-56" style="vsdxID=8;fillColor=#FFFFFF;gradientColor=none;shape=stencil(nZBLDoAgDERP0z3SIyjew0SURgSD+Lu9kMZoXLhwN9O+tukAlrNpJg1SzDH4QW/URgNYgZTkjA4UkwJUgGXng+6DX1zLfmoymdXo17xh5zmRJ6Q42BWCfc2oJfdAr+Yv+AP9Cb7OJ3H/2JG1HNGz/84klThPVCc=);strokeColor=#000000;spacingTop=-3;spacingBottom=-3;spacingLeft=-3;spacingRight=-3;labelBackgroundColor=none;rounded=0;html=1;whiteSpace=wrap;" vertex="1" parent="86EKvm03pErXmEnmY4j6-54">
          <mxGeometry x="20" width="20" height="10" as="geometry" />
        </mxCell>
        <mxCell id="86EKvm03pErXmEnmY4j6-57" value="" style="line;strokeWidth=2;html=1;rounded=1;" vertex="1" parent="1">
          <mxGeometry x="549.9999999999998" y="243.5" width="40" height="10" as="geometry" />
        </mxCell>
        <mxCell id="86EKvm03pErXmEnmY4j6-58" value="&lt;div&gt;EmailAddress&lt;br&gt;&lt;/div&gt;" style="whiteSpace=wrap;html=1;rounded=1;dashed=1;" vertex="1" parent="1">
          <mxGeometry x="590" y="220.5" width="100" height="56" as="geometry" />
        </mxCell>
        <mxCell id="86EKvm03pErXmEnmY4j6-61" value="Password" style="whiteSpace=wrap;html=1;rounded=1;dashed=1;" vertex="1" parent="1">
          <mxGeometry x="150" y="220.5" width="100" height="56" as="geometry" />
        </mxCell>
        <mxCell id="86EKvm03pErXmEnmY4j6-64" style="vsdxID=5;fillColor=none;gradientColor=none;shape=stencil(nZBLDoAgDERP0z3SIyjew0SURgSD+Lu9kMZoXLhwN9O+tukAlrNpJg1SzDH4QW/URgNYgZTkjA4UkwJUgGXng+6DX1zLfmoymdXo17xh5zmRJ6Q42BWCfc2oJfdAr+Yv+AP9Cb7OJ3H/2JG1HNGz/84klThPVCc=);strokeColor=#000000;spacingTop=-3;spacingBottom=-3;spacingLeft=-3;spacingRight=-3;labelBackgroundColor=none;rounded=0;html=1;whiteSpace=wrap;" vertex="1" parent="1">
          <mxGeometry x="290" y="240" width="40" height="10" as="geometry" />
        </mxCell>
        <mxCell id="86EKvm03pErXmEnmY4j6-65" style="vsdxID=7;fillColor=#FFFFFF;gradientColor=none;shape=stencil(nZBLDoAgDERP0z3SIyjew0SURgSD+Lu9kMZoXLhwN9O+tukAlrNpJg1SzDH4QW/URgNYgZTkjA4UkwJUgGXng+6DX1zLfmoymdXo17xh5zmRJ6Q42BWCfc2oJfdAr+Yv+AP9Cb7OJ3H/2JG1HNGz/84klThPVCc=);strokeColor=#000000;spacingTop=-3;spacingBottom=-3;spacingLeft=-3;spacingRight=-3;labelBackgroundColor=none;rounded=0;html=1;whiteSpace=wrap;" vertex="1" parent="86EKvm03pErXmEnmY4j6-64">
          <mxGeometry width="20" height="10" as="geometry" />
        </mxCell>
        <mxCell id="86EKvm03pErXmEnmY4j6-66" style="vsdxID=8;fillColor=#FFFFFF;gradientColor=none;shape=stencil(nZBLDoAgDERP0z3SIyjew0SURgSD+Lu9kMZoXLhwN9O+tukAlrNpJg1SzDH4QW/URgNYgZTkjA4UkwJUgGXng+6DX1zLfmoymdXo17xh5zmRJ6Q42BWCfc2oJfdAr+Yv+AP9Cb7OJ3H/2JG1HNGz/84klThPVCc=);strokeColor=#000000;spacingTop=-3;spacingBottom=-3;spacingLeft=-3;spacingRight=-3;labelBackgroundColor=none;rounded=0;html=1;whiteSpace=wrap;" vertex="1" parent="86EKvm03pErXmEnmY4j6-64">
          <mxGeometry x="20" width="20" height="10" as="geometry" />
        </mxCell>
        <mxCell id="86EKvm03pErXmEnmY4j6-67" value="" style="line;strokeWidth=2;html=1;rounded=1;" vertex="1" parent="1">
          <mxGeometry x="249.99999999999977" y="240" width="40" height="10" as="geometry" />
        </mxCell>
        <mxCell id="86EKvm03pErXmEnmY4j6-68" value="" style="line;strokeWidth=2;html=1;rounded=1;" vertex="1" parent="1">
          <mxGeometry x="329.9999999999998" y="240" width="40" height="10" as="geometry" />
        </mxCell>
        <mxCell id="86EKvm03pErXmEnmY4j6-70" value="&lt;div&gt;Username&lt;/div&gt;&lt;div&gt;(.name)&lt;/div&gt;" style="whiteSpace=wrap;html=1;rounded=1;arcSize=15;" vertex="1" parent="1">
          <mxGeometry x="375" y="50" width="100" height="56" as="geometry" />
        </mxCell>
        <mxCell id="86EKvm03pErXmEnmY4j6-71" style="vsdxID=5;fillColor=none;gradientColor=none;shape=stencil(nZBLDoAgDERP0z3SIyjew0SURgSD+Lu9kMZoXLhwN9O+tukAlrNpJg1SzDH4QW/URgNYgZTkjA4UkwJUgGXng+6DX1zLfmoymdXo17xh5zmRJ6Q42BWCfc2oJfdAr+Yv+AP9Cb7OJ3H/2JG1HNGz/84klThPVCc=);strokeColor=#000000;spacingTop=-3;spacingBottom=-3;spacingLeft=-3;spacingRight=-3;labelBackgroundColor=none;rounded=0;html=1;whiteSpace=wrap;rotation=90;" vertex="1" parent="1">
          <mxGeometry x="405" y="160" width="40" height="10" as="geometry" />
        </mxCell>
        <mxCell id="86EKvm03pErXmEnmY4j6-72" style="vsdxID=7;fillColor=#FFFFFF;gradientColor=none;shape=stencil(nZBLDoAgDERP0z3SIyjew0SURgSD+Lu9kMZoXLhwN9O+tukAlrNpJg1SzDH4QW/URgNYgZTkjA4UkwJUgGXng+6DX1zLfmoymdXo17xh5zmRJ6Q42BWCfc2oJfdAr+Yv+AP9Cb7OJ3H/2JG1HNGz/84klThPVCc=);strokeColor=#000000;spacingTop=-3;spacingBottom=-3;spacingLeft=-3;spacingRight=-3;labelBackgroundColor=none;rounded=0;html=1;whiteSpace=wrap;rotation=90;" vertex="1" parent="86EKvm03pErXmEnmY4j6-71">
          <mxGeometry x="10" y="-10" width="20" height="10" as="geometry" />
        </mxCell>
        <mxCell id="86EKvm03pErXmEnmY4j6-73" style="vsdxID=8;fillColor=#FFFFFF;gradientColor=none;shape=stencil(nZBLDoAgDERP0z3SIyjew0SURgSD+Lu9kMZoXLhwN9O+tukAlrNpJg1SzDH4QW/URgNYgZTkjA4UkwJUgGXng+6DX1zLfmoymdXo17xh5zmRJ6Q42BWCfc2oJfdAr+Yv+AP9Cb7OJ3H/2JG1HNGz/84klThPVCc=);strokeColor=#000000;spacingTop=-3;spacingBottom=-3;spacingLeft=-3;spacingRight=-3;labelBackgroundColor=none;rounded=0;html=1;whiteSpace=wrap;rotation=90;" vertex="1" parent="86EKvm03pErXmEnmY4j6-71">
          <mxGeometry x="10" y="10" width="20" height="10" as="geometry" />
        </mxCell>
        <mxCell id="86EKvm03pErXmEnmY4j6-75" value="" style="line;strokeWidth=2;html=1;rounded=1;rotation=90;" vertex="1" parent="1">
          <mxGeometry x="404.9999999999998" y="200" width="40" height="10" as="geometry" />
        </mxCell>
        <mxCell id="86EKvm03pErXmEnmY4j6-77" value="" style="line;strokeWidth=2;html=1;rounded=1;rotation=90;" vertex="1" parent="1">
          <mxGeometry x="404.9999999999998" y="120" width="40" height="10" as="geometry" />
        </mxCell>
      </root>
    </mxGraphModel>
  </diagram>
</mxfile>
